<svg width="1094" height="525" viewBox="0 0 1094 525" fill="none" xmlns="http://www.w3.org/2000/svg">
<ellipse opacity="0.1" cx="162.28" cy="480.52" rx="79.0085" ry="14.5862" fill="black"/>
<path d="M238.443 409.511C279.26 409.511 297.838 319.131 297.838 284.862C297.838 258.151 279.407 241.964 255.177 241.964C231.098 241.964 211.55 252.318 211.307 265.14C211.307 298.978 205.351 409.511 238.443 409.511Z" fill="white" stroke="black" stroke-width="12.1552"/>
<path d="M89.3598 409.511C48.5426 409.511 29.9645 319.131 29.9645 284.862C29.9645 258.151 48.3951 241.964 72.6251 241.964C96.704 241.964 116.252 252.318 116.495 265.14C116.496 298.978 122.451 409.511 89.3598 409.511Z" fill="white" stroke="black" stroke-width="12.1552"/>
<mask id="path-4-inside-1_197:7177" fill="white">
<path fill-rule="evenodd" clip-rule="evenodd" d="M275.31 274.483C275.972 267.932 268.612 263.977 262.947 267.333C233.341 284.879 198.784 294.951 161.875 294.951C125.31 294.951 91.054 285.066 61.633 267.823C55.9575 264.496 48.6214 268.478 49.3047 275.021C54.3445 323.28 80.6346 363.674 116.661 382.478C126.717 387.727 133.752 397.003 140.816 406.318C146.527 413.848 152.256 421.404 159.616 426.875C160.472 427.511 161.364 427.848 162.28 427.848C163.196 427.848 164.088 427.511 164.944 426.875C172.304 421.404 178.033 413.848 183.744 406.318C190.808 397.003 197.843 387.727 207.899 382.478C244.059 363.605 270.41 322.979 275.31 274.483Z"/>
</mask>
<path fill-rule="evenodd" clip-rule="evenodd" d="M275.31 274.483C275.972 267.932 268.612 263.977 262.947 267.333C233.341 284.879 198.784 294.951 161.875 294.951C125.31 294.951 91.054 285.066 61.633 267.823C55.9575 264.496 48.6214 268.478 49.3047 275.021C54.3445 323.28 80.6346 363.674 116.661 382.478C126.717 387.727 133.752 397.003 140.816 406.318C146.527 413.848 152.256 421.404 159.616 426.875C160.472 427.511 161.364 427.848 162.28 427.848C163.196 427.848 164.088 427.511 164.944 426.875C172.304 421.404 178.033 413.848 183.744 406.318C190.808 397.003 197.843 387.727 207.899 382.478C244.059 363.605 270.41 322.979 275.31 274.483Z" fill="#FFDF6F"/>
<path d="M116.661 382.478L111.037 393.254L111.037 393.254L116.661 382.478ZM140.816 406.318L150.501 398.973L150.501 398.973L140.816 406.318ZM159.616 426.875L152.364 436.63L152.364 436.63L159.616 426.875ZM164.944 426.875L172.196 436.63L172.196 436.63L164.944 426.875ZM183.744 406.318L193.429 413.663L193.429 413.663L183.744 406.318ZM207.899 382.478L213.523 393.254L213.523 393.254L207.899 382.478ZM262.947 267.333L269.144 277.79L262.947 267.333ZM275.31 274.483L287.404 275.705L275.31 274.483ZM256.75 256.876C228.969 273.341 196.544 282.795 161.875 282.795V307.106C201.024 307.106 237.714 296.417 269.144 277.79L256.75 256.876ZM161.875 282.795C127.529 282.795 95.3869 273.516 67.7791 257.336L55.4868 278.309C86.7211 296.615 123.091 307.106 161.875 307.106V282.795ZM37.2153 276.283C42.615 327.988 70.8855 372.297 111.037 393.254L122.285 371.703C90.3837 355.052 66.0741 318.571 61.3941 273.758L37.2153 276.283ZM111.037 393.254C118.255 397.021 123.721 403.892 131.131 413.663L150.501 398.973C143.783 390.115 135.178 378.432 122.285 371.703L111.037 393.254ZM131.131 413.663C136.632 420.917 143.373 429.946 152.364 436.63L166.868 417.12C161.139 412.861 156.421 406.78 150.501 398.973L131.131 413.663ZM152.364 436.63C154.84 438.471 158.214 440.003 162.28 440.003V415.692C164.513 415.692 166.103 416.552 166.868 417.12L152.364 436.63ZM162.28 440.003C166.345 440.003 169.719 438.471 172.196 436.63L157.692 417.12C158.457 416.552 160.047 415.692 162.28 415.692V440.003ZM172.196 436.63C181.187 429.946 187.928 420.917 193.429 413.663L174.059 398.973C168.139 406.78 163.42 412.861 157.692 417.12L172.196 436.63ZM193.429 413.663C200.839 403.892 206.305 397.021 213.523 393.254L202.275 371.703C189.381 378.432 180.777 390.115 174.059 398.973L193.429 413.663ZM213.523 393.254C253.823 372.22 282.155 327.66 287.404 275.705L263.217 273.261C258.666 318.298 234.295 354.99 202.275 371.703L213.523 393.254ZM67.7791 257.336C61.0062 253.366 53.1152 253.721 47.0768 257.154C40.8767 260.679 36.3202 267.712 37.2153 276.283L61.3941 273.758C61.4792 274.573 61.3155 275.576 60.8039 276.51C60.3238 277.386 59.6757 277.955 59.0918 278.287C57.9695 278.926 56.5842 278.953 55.4868 278.309L67.7791 257.336ZM269.144 277.79C268.049 278.439 266.663 278.418 265.538 277.784C264.952 277.455 264.301 276.887 263.817 276.012C263.302 275.08 263.134 274.076 263.217 273.261L287.404 275.705C288.271 267.123 283.683 260.102 277.464 256.601C271.408 253.191 263.509 252.871 256.75 256.876L269.144 277.79Z" fill="black" mask="url(#path-4-inside-1_197:7177)"/>
<ellipse cx="162.685" cy="273.072" rx="106.965" ry="35.6551" fill="black" stroke="black" stroke-width="12.1552"/>
<path d="M76.7888 333.038C76.7888 333.038 129.549 350.865 163.496 350.865C197.442 350.865 250.202 333.038 250.202 333.038" stroke="black" stroke-width="12.1552" stroke-linecap="round"/>
<circle r="24.1868" transform="matrix(-1 0 0 1 62.0796 120.604)" fill="black"/>
<path d="M58.0484 116.976L103.197 162.125" stroke="black" stroke-width="12.0934"/>
<circle cx="259.606" cy="120.604" r="24.1868" fill="black"/>
<path d="M264.04 116.976L218.891 162.125" stroke="black" stroke-width="12.0934"/>
<path fill-rule="evenodd" clip-rule="evenodd" d="M68.9449 264.934C55.909 258.728 48.3222 244.792 50.8636 230.58C61.7712 169.58 107.228 123.829 161.649 123.829C216.201 123.829 261.746 169.802 272.512 231.023C275.016 245.261 267.368 259.191 254.287 265.346C226.298 278.518 195.035 285.881 162.052 285.881C128.726 285.881 97.1564 278.364 68.9449 264.934Z" fill="#FFDF6F"/>
<path d="M272.512 231.023L266.557 232.07L272.512 231.023ZM50.8636 230.58L44.9113 229.515L50.8636 230.58ZM68.9449 264.934L66.3458 270.394L68.9449 264.934ZM56.8159 231.644C67.3556 172.702 110.923 129.876 161.649 129.876V117.782C103.534 117.782 56.1869 166.458 44.9113 229.515L56.8159 231.644ZM161.649 129.876C212.497 129.876 256.154 172.911 266.557 232.07L278.468 229.976C267.339 166.693 219.905 117.782 161.649 117.782V129.876ZM251.713 259.875C224.512 272.676 194.126 279.834 162.052 279.834V291.927C195.943 291.927 228.084 284.36 256.862 270.818L251.713 259.875ZM162.052 279.834C129.644 279.834 98.9608 272.526 71.544 259.474L66.3458 270.394C95.352 284.202 127.808 291.927 162.052 291.927V279.834ZM266.557 232.07C268.565 243.486 262.452 254.821 251.713 259.875L256.862 270.818C272.283 263.56 281.468 247.037 278.468 229.976L266.557 232.07ZM44.9113 229.515C41.866 246.545 50.9775 263.077 66.3458 270.394L71.544 259.474C60.8405 254.379 54.7784 243.038 56.8159 231.644L44.9113 229.515Z" fill="black"/>
<path fill-rule="evenodd" clip-rule="evenodd" d="M92.2041 249.769C81.7109 245.495 75.4864 234.331 79.1224 223.6C90.3355 190.507 123.045 166.559 161.649 166.559C200.253 166.559 232.962 190.507 244.175 223.6C247.811 234.331 241.587 245.495 231.093 249.769C209.662 258.497 186.217 263.306 161.649 263.306C137.081 263.306 113.636 258.497 92.2041 249.769Z" fill="black"/>
<ellipse cx="189.464" cy="218.158" rx="20.1557" ry="16.1246" fill="white"/>
<ellipse cx="131.763" cy="218.167" rx="20.1557" ry="16.1246" fill="white"/>
<path d="M507.391 134.4H565.631L646.911 349.44L589.631 355.2L573.951 309.12H498.751L483.711 352H425.791L507.391 134.4ZM557.311 263.36L535.551 204.16L514.751 263.36H557.311ZM721.131 352H662.891V129.6L721.131 126.08V352ZM782.494 352H753.054V129.6L811.294 126.08V195.52C814.921 194.24 818.654 193.28 822.494 192.64C826.334 191.787 830.281 191.36 834.334 191.36C849.694 191.36 863.347 194.24 875.294 200C887.241 205.76 896.627 214.613 903.454 226.56C910.494 238.507 914.014 253.76 914.014 272.32C914.014 290.667 910.494 306.027 903.454 318.4C896.627 330.773 887.027 340.053 874.654 346.24C862.494 352.427 848.201 355.52 831.774 355.52C824.947 355.52 818.227 354.453 811.614 352.32C805.214 350.187 798.814 346.773 792.414 342.08L782.494 352ZM825.374 236.16C821.107 236.16 816.414 237.76 811.294 240.96V306.24C817.054 309.227 822.601 310.72 827.934 310.72C835.187 310.72 841.267 307.413 846.174 300.8C851.294 293.973 853.854 284.587 853.854 272.64C853.854 260.693 851.401 251.627 846.494 245.44C841.587 239.253 834.547 236.16 825.374 236.16ZM971.616 352.64L972.896 349.12L917.216 206.4L970.976 191.04L1002.66 284.48L1032.42 196.8H1090.34L1022.18 370.24C1018.98 378.56 1013.75 386.24 1006.5 393.28C999.243 400.32 990.816 406.293 981.216 411.2C971.616 416.107 961.696 419.733 951.456 422.08L931.936 376.96C937.056 374.827 942.39 372.48 947.936 369.92C953.696 367.36 958.816 364.587 963.296 361.6C967.776 358.613 970.55 355.627 971.616 352.64Z" fill="black"/>
</svg>
